@startuml
'scale 350 width
Init --> uploading: 确认创建对账任务
Init: + create()
uploading ---> comparing: 开始对账
uploading: + compareBill()
uploading: + saveFileFail()

uploading -> uploadFail: 异常
uploadFail -> uploading: 更新账单
uploadFail: + update()
compareFail -> uploading: 更新账单
compareFail: + update()
comparing --> compareSuccess: 对账成完成
comparing: + complete()
comparing: + compareFail()
comparing -> compareFail: 对账异常
compareSuccess -> uploading: 更新账单
compareSuccess: + update()
compareSuccess -> compareFail: 存在失败对账单
compareSuccess --> processSuccess: 不存在差异
processSuccess -> confirmSuccess: 确认结果
confirmSuccess --> auditing: 提交审核
auditing --> auditFail: 审核不通过
auditing --> auditSuccess: 审核通过
auditFail -> confirmSuccess : ？？？
auditSuccess --> [*]
@enduml